<svg xmlns="http://www.w3.org/2000/svg" width="31.5" height="30" viewBox="0 0 31.5 30"><path d="M28.125,2.25H3.375A3.3,3.3,0,0,0,0,5.464V29.036A3.3,3.3,0,0,0,3.375,32.25h24.75A3.3,3.3,0,0,0,31.5,29.036V5.464A3.3,3.3,0,0,0,28.125,2.25Zm-2.25,16.071a.827.827,0,0,1-.844.8H17.313v6.964a.827.827,0,0,1-.844.8H14.625a.827.827,0,0,1-.844-.8V19.125H6.469a.827.827,0,0,1-.844-.8V16.179a.827.827,0,0,1,.844-.8h7.313V8.411a.827.827,0,0,1,.844-.8h1.844a.827.827,0,0,1,.844.8v6.964h7.719a.827.827,0,0,1,.844.8Z" transform="translate(0 -2.25)" fill="#3e3e40"/></svg>