<svg xmlns="http://www.w3.org/2000/svg" width="31.5" height="31.5" viewBox="0 0 31.5 31.5">
  <path id="Icon_awesome-check-square" data-name="Icon awesome-check-square" d="M28.125,33.75H3.375A3.375,3.375,0,0,1,0,30.375V5.625A3.375,3.375,0,0,1,3.375,2.25h24.75A3.375,3.375,0,0,1,31.5,5.625v24.75A3.375,3.375,0,0,1,28.125,33.75ZM13.733,26.855,26.671,13.918a1.125,1.125,0,0,0,0-1.591L25.08,10.736a1.125,1.125,0,0,0-1.591,0L12.938,21.287,8.011,16.361a1.125,1.125,0,0,0-1.591,0L4.829,17.952a1.125,1.125,0,0,0,0,1.591l7.313,7.313a1.125,1.125,0,0,0,1.591,0Z" transform="translate(0 -2.25)"/>
</svg>
