<svg xmlns="http://www.w3.org/2000/svg" width="108.004" height="19.552" viewBox="0 0 108.004 19.552">
  <path id="Trazado_41" data-name="Trazado 41" d="M12.948-4.992l.468-.338a3.1,3.1,0,0,1,1.248-.52q.806,0,1.742,1.456a3.023,3.023,0,0,1,.572,1.456,1.259,1.259,0,0,1-.351.91,4.1,4.1,0,0,1-.819.65l-.9.546a9.461,9.461,0,0,1-1.755.676A8.541,8.541,0,0,1,10.6.26,9.971,9.971,0,0,1,8.1-.065,10.566,10.566,0,0,1,5.5-1.157a10.745,10.745,0,0,1-2.4-1.872A8.62,8.62,0,0,1,1.339-5.863,10.057,10.057,0,0,1,.65-9.62,9.626,9.626,0,0,1,1.326-13.3a8.422,8.422,0,0,1,1.729-2.73,9.889,9.889,0,0,1,2.4-1.807,10.522,10.522,0,0,1,5.122-1.4,8.639,8.639,0,0,1,2.483.377,8.713,8.713,0,0,1,1.911.767l.624.364q.468.286.728.468A1.574,1.574,0,0,1,17-16.029a2.486,2.486,0,0,1-.546,1.443q-1.014,1.4-1.82,1.4a2.748,2.748,0,0,1-1.326-.572,4.49,4.49,0,0,0-2.912-.884,5.678,5.678,0,0,0-3.328,1.17,4.374,4.374,0,0,0-1.3,1.612A5.19,5.19,0,0,0,5.252-9.5a5.19,5.19,0,0,0,.52,2.353A4.494,4.494,0,0,0,7.1-5.512a5.568,5.568,0,0,0,3.3,1.144,5.42,5.42,0,0,0,1.521-.208A3.962,3.962,0,0,0,12.948-4.992Zm18.2-13.364a1.328,1.328,0,0,1,.754-.572,4.161,4.161,0,0,1,1.235-.156,4.334,4.334,0,0,1,1.183.13,2.054,2.054,0,0,1,.676.312,1.021,1.021,0,0,1,.338.546,4.347,4.347,0,0,1,.156,1.352v7.852a10.074,10.074,0,0,1-2.132,6.24A7.742,7.742,0,0,1,30.68-.507a8,8,0,0,1-3.627.819A7.813,7.813,0,0,1,23.439-.52,7.521,7.521,0,0,1,20.8-2.7a10.011,10.011,0,0,1-2.106-6.24V-16.77a7.859,7.859,0,0,1,.039-.923,2.083,2.083,0,0,1,.247-.689,1.14,1.14,0,0,1,.7-.546,4.545,4.545,0,0,1,1.326-.156,4.545,4.545,0,0,1,1.326.156,1.043,1.043,0,0,1,.676.546,3.577,3.577,0,0,1,.312,1.638v7.8a6.209,6.209,0,0,0,.78,3.016,2.922,2.922,0,0,0,1.17,1.17,3.683,3.683,0,0,0,1.846.442,3.175,3.175,0,0,0,2.834-1.4,5.722,5.722,0,0,0,.936-3.25v-7.956A2.859,2.859,0,0,1,31.148-18.356ZM42.172-3.848h7.072a2.958,2.958,0,0,1,1.248.195.986.986,0,0,1,.52.611,3.814,3.814,0,0,1,.13,1.105,3.814,3.814,0,0,1-.13,1.105.9.9,0,0,1-.442.572A2.929,2.929,0,0,1,49.218,0h-9.36q-1.82,0-2.132-.988a4.089,4.089,0,0,1-.156-1.326V-16.77a7.554,7.554,0,0,1,.039-.9,2.083,2.083,0,0,1,.247-.689q.364-.7,2.028-.7,1.82,0,2.158.962a5.171,5.171,0,0,1,.13,1.352ZM73.086-18.33a2.075,2.075,0,0,1,.247.7,7.91,7.91,0,0,1,.039.91v14.43q0,1.794-.988,2.106a4.214,4.214,0,0,1-1.248.156,4.395,4.395,0,0,1-1.2-.13,2.054,2.054,0,0,1-.676-.312,1.172,1.172,0,0,1-.364-.52,5.171,5.171,0,0,1-.13-1.352v-8.71q-.65.806-1.9,2.561t-1.586,2.2l-.468.611a2.5,2.5,0,0,1-.637.468,2.113,2.113,0,0,1-1.092.3,2.122,2.122,0,0,1-1.066-.273,2.4,2.4,0,0,1-.689-.533l-.208-.286q-.52-.65-2.054-2.769T57.408-11.05v8.762a7.553,7.553,0,0,1-.039.9,1.849,1.849,0,0,1-.247.663q-.39.7-2.028.7-1.586,0-1.976-.7a1.846,1.846,0,0,1-.247-.676,8.222,8.222,0,0,1-.039-.936V-16.77a7.554,7.554,0,0,1,.039-.9,2.083,2.083,0,0,1,.247-.689q.39-.676,2.028-.676a3.84,3.84,0,0,1,1.209.169,1.559,1.559,0,0,1,.663.351l.156.156,5.9,7.748q4.42-5.85,5.9-7.722.442-.7,2.093-.7T73.086-18.33ZM80.054-4.6h8.008a7.553,7.553,0,0,1,.9.039,2.083,2.083,0,0,1,.689.247q.7.364.7,2.028,0,1.82-.962,2.132A4.347,4.347,0,0,1,88.036,0H77.74q-1.82,0-2.132-.988a4.089,4.089,0,0,1-.156-1.326V-16.77a2.518,2.518,0,0,1,.494-1.807,2.717,2.717,0,0,1,1.872-.481H88.062a7.553,7.553,0,0,1,.9.039,2.083,2.083,0,0,1,.689.247q.7.364.7,2.028,0,1.82-.962,2.132a4.347,4.347,0,0,1-1.352.156H80.054v2.626H85.2a7.553,7.553,0,0,1,.9.039,2.083,2.083,0,0,1,.689.247q.7.364.7,2.028,0,1.82-.988,2.132a4.347,4.347,0,0,1-1.352.156h-5.1Zm14.3-14.482,4.81.026a9.334,9.334,0,0,1,6.63,2.717,8.855,8.855,0,0,1,2.86,6.682,9.338,9.338,0,0,1-2.795,6.8A9.16,9.16,0,0,1,99.086-.026H94.328q-1.586,0-1.976-.65A3.454,3.454,0,0,1,92.04-2.34V-16.8a7.505,7.505,0,0,1,.039-.91,2.1,2.1,0,0,1,.247-.676Q92.69-19.084,94.354-19.084Zm4.81,14.456a4.863,4.863,0,0,0,3.38-1.391,4.556,4.556,0,0,0,1.508-3.5,4.7,4.7,0,0,0-1.469-3.523,4.8,4.8,0,0,0-3.445-1.417h-2.5v9.828Z" transform="translate(-0.65 19.24)" fill="#3e3e40"/>
</svg>
